<?xml version="1.0" standalone="no"?>
<!DOCTYPE svg PUBLIC "-//W3C//DTD SVG 20010904//EN"
 "http://www.w3.org/TR/2001/REC-SVG-20010904/DTD/svg10.dtd">
<svg version="1.0" xmlns="http://www.w3.org/2000/svg"
 width="281.000000pt" height="275.000000pt" viewBox="0 0 281.000000 275.000000"
 preserveAspectRatio="xMidYMid meet">

<g transform="translate(0.000000,275.000000) scale(0.100000,-0.100000)"
fill="#000000" stroke="none">
<path d="M1460 2505 c0 -11 11 -15 38 -15 56 0 105 -29 119 -70 15 -45 18
-1482 3 -1614 -17 -141 -62 -218 -136 -232 -22 -4 -34 -12 -34 -23 0 -14 11
-15 104 -10 182 12 264 69 320 224 7 20 12 297 16 840 4 648 8 815 18 833 16
29 69 52 117 52 24 0 35 4 35 15 0 13 -40 15 -300 15 -260 0 -300 -2 -300 -15z"/>
<path d="M692 2493 c2 -14 17 -19 60 -24 62 -7 117 -36 147 -77 22 -32 91
-196 91 -218 0 -21 -545 -1327 -576 -1382 -29 -49 -111 -107 -166 -117 -23 -4
-38 -13 -38 -21 0 -11 36 -14 200 -14 166 0 200 2 200 14 0 9 -16 17 -42 21
-29 5 -53 18 -77 42 -46 46 -43 62 65 321 l88 212 371 0 371 0 55 -136 54
-135 3 332 2 333 -171 411 c-95 225 -176 420 -182 433 -10 22 -12 22 -234 22
-208 0 -224 -1 -221 -17z m498 -778 c93 -225 170 -415 170 -422 0 -10 -67 -13
-344 -13 -190 0 -347 3 -349 8 -2 4 56 151 130 327 202 486 215 516 219 513 2
-2 80 -188 174 -413z"/>
<path d="M1969 669 c-14 -28 -12 -29 56 -29 84 0 89 21 9 36 -49 9 -56 8 -65
-7z"/>
<path d="M392 370 c-6 -14 -20 -47 -31 -73 -24 -57 -28 -97 -5 -54 21 38 75
39 93 1 6 -15 14 -24 17 -21 3 2 -11 42 -30 88 -32 78 -35 82 -44 59z m31 -82
c-6 -11 -43 -10 -43 1 0 5 5 22 11 38 l11 28 12 -30 c7 -16 11 -33 9 -37z"/>
<path d="M560 306 c0 -55 4 -85 10 -81 6 3 10 30 10 58 l0 52 35 -50 c20 -28
40 -51 45 -53 6 -2 10 28 10 72 0 87 -17 104 -22 21 l-3 -55 -42 62 -43 62 0
-88z"/>
<path d="M790 310 c-18 -44 -30 -83 -27 -87 4 -3 11 6 16 21 9 21 17 26 44 26
27 0 36 -6 47 -27 7 -16 14 -23 17 -17 3 8 -51 150 -62 162 -1 1 -17 -34 -35
-78z m54 -7 c6 -20 4 -23 -18 -23 -29 0 -31 7 -14 45 12 27 19 23 32 -22z"/>
<path d="M1870 310 c-18 -44 -30 -83 -27 -87 4 -3 11 6 16 21 9 21 17 26 44
26 27 0 36 -6 47 -27 7 -16 14 -23 17 -17 3 8 -51 150 -62 162 -1 1 -17 -34
-35 -78z m54 -7 c6 -20 4 -23 -18 -23 -29 0 -31 7 -14 45 12 27 19 23 32 -22z"/>
<path d="M1112 303 l3 -78 43 -3 c25 -2 42 1 42 7 0 6 -16 11 -35 11 -32 0
-35 2 -35 30 0 27 3 29 30 26 17 -2 33 0 36 5 3 5 -11 9 -30 9 -33 0 -36 2
-36 29 0 27 4 30 38 34 34 3 33 4 -11 5 l-48 2 3 -77z"/>
<path d="M1478 313 c-3 -62 -5 -68 -25 -71 -28 -4 -31 -22 -4 -22 32 0 51 38
51 102 0 81 -18 73 -22 -9z"/>
<path d="M1612 357 c-38 -40 -26 -98 25 -125 32 -18 48 -15 82 14 37 31 41 69
10 108 -27 35 -86 36 -117 3z m96 -3 c45 -31 19 -114 -36 -114 -36 0 -62 27
-62 66 0 34 28 64 60 64 9 0 26 -7 38 -16z"/>
<path d="M2080 360 c-45 -45 -8 -140 55 -140 35 0 85 50 85 85 0 63 -95 100
-140 55z m108 -18 c7 -9 12 -30 10 -47 -6 -59 -92 -74 -116 -20 -16 35 -15 38
9 70 18 22 27 26 53 21 17 -4 37 -14 44 -24z"/>
</g>
</svg>
