<?xml version="1.0" standalone="no"?>
<!DOCTYPE svg PUBLIC "-//W3C//DTD SVG 20010904//EN"
 "http://www.w3.org/TR/2001/REC-SVG-20010904/DTD/svg10.dtd">
<svg version="1.0" xmlns="http://www.w3.org/2000/svg"
 width="500.000000pt" height="500.000000pt" viewBox="0 0 500.000000 500.000000"
 preserveAspectRatio="xMidYMid meet">

<g transform="translate(0.000000,500.000000) scale(0.100000,-0.100000)"
fill="#000000" stroke="none">
<path d="M2680 3717 c0 -7 25 -17 63 -24 72 -14 93 -34 102 -96 3 -23 5 -397
3 -832 -3 -779 -4 -791 -25 -854 -27 -78 -64 -119 -115 -127 -28 -5 -38 -11
-38 -25 0 -22 31 -24 148 -9 141 18 217 73 264 189 l23 56 5 818 5 819 31 28
c22 19 48 30 83 35 34 5 51 12 51 21 0 12 -49 14 -300 14 -236 0 -300 -3 -300
-13z"/>
<path d="M1910 3700 c0 -17 7 -20 43 -20 64 0 142 -42 172 -94 31 -54 85 -184
85 -206 0 -17 -519 -1269 -563 -1358 -37 -75 -128 -142 -192 -142 -20 0 -26
-4 -23 -17 3 -16 22 -18 201 -21 188 -2 197 -2 197 17 0 14 -10 20 -41 25 -68
11 -109 51 -109 108 0 11 42 121 93 244 l92 224 370 0 370 0 55 -136 55 -137
3 332 2 332 -181 435 -182 434 -223 0 c-217 0 -224 -1 -224 -20z m509 -800
l168 -405 -179 -3 c-99 -1 -257 -1 -353 0 l-173 3 176 423 c132 317 178 419
184 405 5 -10 84 -200 177 -423z"/>
<path d="M3186 1875 c-12 -32 -6 -35 59 -35 58 0 65 2 65 20 0 14 -7 20 -22
20 -13 0 -39 3 -59 6 -28 5 -37 2 -43 -11z"/>
<path d="M1604 1554 c-9 -21 -24 -58 -34 -81 -11 -25 -14 -43 -9 -43 6 0 13 9
16 20 4 16 14 20 43 20 30 0 40 -5 45 -20 5 -16 25 -29 25 -16 0 6 -60 150
-65 154 -3 3 -12 -12 -21 -34z m46 -60 c0 -2 -11 -4 -25 -4 -28 0 -30 8 -13
45 l12 26 13 -32 c7 -17 13 -33 13 -35z"/>
<path d="M1780 1510 c0 -47 4 -80 10 -80 6 0 10 26 10 57 l0 58 35 -52 c19
-28 39 -54 45 -58 6 -4 10 22 10 74 0 92 -17 111 -22 24 l-3 -57 -39 57 c-22
31 -41 57 -43 57 -1 0 -3 -36 -3 -80z"/>
<path d="M2030 1566 c-5 -15 -20 -50 -31 -77 -22 -49 -21 -80 1 -40 8 15 20
21 45 21 25 0 37 -6 45 -21 24 -43 20 -9 -6 57 -34 86 -41 94 -54 60z m34 -53
c6 -20 4 -23 -18 -23 -30 0 -29 -2 -15 40 12 34 19 30 33 -17z"/>
<path d="M2330 1510 l0 -80 52 0 c28 0 48 3 44 7 -7 8 -12 9 -53 11 -17 2 -23
8 -23 27 0 22 4 25 35 25 19 0 35 5 35 10 0 6 -16 10 -35 10 -31 0 -35 3 -35
25 0 22 4 25 34 25 19 0 38 5 41 10 4 6 -13 10 -44 10 l-51 0 0 -80z"/>
<path d="M2700 1521 c0 -54 -3 -70 -16 -75 -9 -3 -20 -4 -25 0 -5 3 -9 0 -9
-5 0 -19 49 -12 60 8 13 25 13 141 0 141 -6 0 -10 -30 -10 -69z"/>
<path d="M2835 1565 c-50 -49 -15 -135 55 -135 41 0 80 39 80 80 0 41 -39 80
-80 80 -19 0 -40 -9 -55 -25z m99 -11 c9 -8 16 -28 16 -44 0 -36 -24 -60 -60
-60 -36 0 -60 24 -60 60 0 36 24 60 60 60 16 0 36 -7 44 -16z"/>
<path d="M3111 1569 c-5 -13 -18 -48 -30 -77 -24 -60 -24 -62 -12 -62 5 0 11
9 14 20 4 15 14 20 42 20 28 0 38 -5 42 -20 5 -17 23 -29 23 -15 0 10 -53 140
-61 149 -5 5 -12 -1 -18 -15z m33 -56 c6 -20 4 -23 -18 -23 -30 0 -29 -2 -15
40 12 34 19 30 33 -17z"/>
<path d="M3306 1569 c-56 -44 -21 -139 53 -139 39 0 81 41 81 80 0 37 -42 80
-78 80 -16 0 -41 -9 -56 -21z m96 -16 c41 -37 10 -103 -48 -103 -56 0 -79 60
-42 108 15 17 68 15 90 -5z"/>
</g>
</svg>
